<svg id="Vrstva_1" data-name="Vrstva 1" xmlns="http://www.w3.org/2000/svg" viewBox="0 0 1920.49 942.74"><defs><style>.cls-1{fill:#d2d2d0;}.cls-2{fill:#484c4d;}.cls-3{fill:#494949;}.cls-4{fill:#fff;}</style></defs><path class="cls-1" d="M1920.24,1080,1920,920.13l-217.87-206.6C1616.83,600.44,960.06,613.35,960,613.35h0S303.17,600.43,217.87,713.52L0,920.13-.24,1080H1920.24Z" transform="translate(0.24 -137.27)"/><path class="cls-2" d="M-.15,523.93c73.56,98.61,95.82,225.78.06,293.26V920.5L217.78,713.89,0,137.62Z" transform="translate(0.24 -137.27)"/><path class="cls-2" d="M1920.07,523.58c-73.56,98.61-95.83,225.78-.07,293.26v103.3l-217.87-206.6,217.79-576.27Z" transform="translate(0.24 -137.27)"/><path class="cls-3" d="M1897.35,1079.78h0a314,314,0,0,0-97.94-228.57l-114-108.11c-83.1-110.16-722.93-97.59-723-97.59h0s-639.89-12.58-723,97.59l-114,108.11a317.51,317.51,0,0,0-99,228.57h1871Z" transform="translate(0.24 -137.27)"/><rect x="800.24" y="582.73" width="600" height="300" rx="43.83"/><rect class="cls-4" x="825.24" y="607.73" width="550" height="250" rx="28.98"/><rect x="325.24" y="607.73" width="400" height="250" rx="43.83"/></svg>